<?xml version="1.0" encoding="utf-8"?>
<svg viewBox="0 0 500 500" xmlns="http://www.w3.org/2000/svg">
  <g transform="matrix(1.100371, 0, 0, 1.261603, -37.260002, -49.754677)">
    <title>Batman</title>
    <path style="stroke-linecap: round; stroke-linejoin: round; fill: none; stroke: rgb(0, 0, 0); stroke-width: 4.23375px;" d="M 186.763 137.106 C 201.256 96.734 250.082 83.277 289.329 108.65 C 303.879 120.883 310.766 138.813 314.98 163.804 C 315.946 202.422 321.807 221.416 292.416 245.977 C 236.402 283.989 164.617 255.789 186.763 137.106 Z">
      <title>Head</title>
    </path>
    <path style="stroke-linecap: round; stroke-linejoin: round; fill: none; stroke: rgb(0, 0, 0); stroke-width: 4.23375px;" d="M 216.584 101.515 C 216.395 99.938 222.783 51.635 223.381 51.635 C 230.59 53.48 248.866 79.284 254.284 98.627 C 258.957 79.875 264.177 51.129 271.185 43.601 C 288.991 57.957 279.709 86.688 288.621 112.491">
      <title>Ears</title>
    </path>
    <path style="stroke-linecap: round; stroke-linejoin: round; fill: none; stroke: rgb(0, 0, 0); stroke-width: 4.23375px;" d="M 260.218 126.029 C 253.274 113.486 202.237 121.033 208.102 131.626 C 196.546 156.326 243.388 191.684 249.457 178.711 C 258.103 175.65 239.741 114.041 226.208 118.833">
      <title>L eye</title>
    </path>
    <path style="stroke-linecap: round; stroke-linejoin: round; fill: none; stroke: rgb(0, 0, 0); stroke-width: 4.23375px;" d="M 284.179 132.201 C 289.494 134.239 300.842 142.443 303.95 145.496 C 305.09 151.983 302.754 166.586 302.359 164.339 C 303.842 170.826 267.272 175.407 266.668 172.766 C 261.159 165.898 285.284 132.947 286.411 134.105">
      <title>E eye</title>
    </path>
    <path style="stroke-linecap: round; stroke-linejoin: round; fill: none; stroke: rgb(0, 0, 0); stroke-width: 4.23375px;" d="M 222.502 253.776 C 200.273 213.415 224.025 198.77 248.581 198.999 C 298.195 203.188 287.152 231.886 287.509 250.016">
      <title>Mask-Mouth</title>
    </path>
    <path style="stroke-linecap: round; stroke-linejoin: round; fill: none; stroke: rgb(0, 0, 0); stroke-width: 4.23375px;" d="M 227.649 239.114 C 212.864 234.756 261.466 227.905 263.241 228.428">
      <title>Mouth</title>
    </path>
    <path style="stroke-linecap: round; stroke-linejoin: round; fill: none; stroke: rgb(0, 0, 0); stroke-width: 4.23375px;" d="M 220.327 264.909 C 223.849 264.119 154.09 216.949 111.574 226.491 C 90.224 223.68 37.176 285.991 44.365 286.938 C 35.16 286.938 43.373 355.791 52.784 355.791 C 50.741 357.525 71.975 392.639 73.669 391.202 L 78.481 356.653 L 104.282 406.456 L 106.951 345.455 L 122.911 392.049 C 125.681 400.408 188.856 363.668 183.76 348.288 C 182.238 349.133 212.274 397.908 214.499 396.672 C 218.084 396.672 229.863 353.425 229.061 353.425 C 228.253 354.225 258.023 386.778 258.819 385.99 C 263.077 387.054 277.243 341.264 275.348 340.79 L 317.43 379.613 C 312.711 388.383 323.406 356.124 327.855 346.009 C 336.449 359.824 348.877 372.906 358.266 385.651 C 358.155 385.651 358.497 362.973 367.882 345.551 C 367.882 345.551 375.721 361.141 390.996 395.101 C 391.021 395.156 396.588 379.781 407.698 348.978 C 407.629 349.023 409.024 361.603 421.815 380.264 C 421.815 380.264 429.839 351.472 434.584 360.582 C 436.555 364.367 439.206 374.253 448.222 393.571 C 448.504 393.571 451.366 387.049 452.046 374.035 C 452.064 373.697 462.224 407.259 462.224 407.259 C 462.224 407.259 469.437 378.419 474.599 354.982 C 478.296 338.198 481.015 313.803 483.371 300.697 C 486.516 283.201 462.086 257.926 408.336 243.089 C 377.218 234.499 331.815 240.743 308.855 260.85 C 308.877 260.839 306.263 261.327 291.114 250.25 C 287.868 247.876 262.126 261.716 242.502 263.585 C 237.115 264.098 226.606 265.968 220.327 264.909 Z">
      <title>Cape</title>
    </path>
    <path style="stroke-linecap: round; stroke-linejoin: round; fill: none; stroke: rgb(0, 0, 0); stroke-width: 4.23375px;" d="M 223.443 271.654 C 226.015 263.421 125.572 245.582 112.5 287.419 C 109.367 285.145 99.196 312.635 117.67 326.043">
      <title>L Arm</title>
    </path>
    <path style="stroke-linecap: round; stroke-linejoin: round; fill: none; stroke: rgb(0, 0, 0); stroke-width: 4.23375px;" d="M 308.578 277.179 C 306.901 270.984 349.926 274.466 351.472 280.177 C 374.543 284.528 401.57 318.471 396.349 317.486">
      <title>R Arm</title>
    </path>
    <path style="stroke-linecap: round; stroke-linejoin: round; fill: none; stroke: rgb(0, 0, 0); stroke-width: 4.23375px;" d="M 245.444 319.108 C 247.933 317.386 258.569 398.467 248.482 420.281 C 234.114 420.463 172.151 417.514 173.319 399.892">
      <title>L Leg</title>
    </path>
    <path style="stroke-linecap: round; stroke-linejoin: round; fill: none; stroke: rgb(0, 0, 0); stroke-width: 4.23375px;" d="M 288.591 317.77 C 288.798 318.837 301.502 413.212 300.941 410.321 C 302.624 410.936 362.711 409.849 361.104 409.262">
      <title>R Leg</title>
    </path>
    <path style="stroke-linecap: round; stroke-linejoin: round; fill: none; stroke: rgb(0, 0, 0); stroke-width: 4.23375px;" d="M 230.154 266.799 C 215.726 268.167 198.362 269.445 176.952 283.025 C 166.399 289.719 154.94 304.295 195.078 321.612 C 216.47 330.841 251.794 333.485 277.719 322.884 C 300.409 313.606 317.188 284.14 307.779 263.491 C 304.134 261.989 255.68 264.379 230.154 266.799 Z">
      <title>Body</title>
    </path>
    <path style="stroke-linecap: round; stroke-linejoin: round; fill: none; stroke: rgb(0, 0, 0); stroke-width: 4.23375px;" d="M 239.792 269.554 L 214.786 312.663 L 226.013 303.84 L 229.269 320.757 L 237.476 296.183 L 242.137 303.107 L 247.021 292.793 L 250.093 308.127 L 264.573 307.343 L 265.816 296.588 L 274.155 297.831 L 272.272 310.853 L 285.077 303.037 L 300.912 310.624 L 300.284 292.418 L 309.263 296.611 L 307.792 272.164 L 298.568 277.828 L 297.133 267.379 L 289.416 267.379 L 285.676 257.375 L 280.554 271.615 L 275.148 258.976 L 269.123 274.783 L 239.792 269.554 Z">
      <title>Symbol</title>
    </path>
  </g>
</svg>