<?xml version="1.0" encoding="utf-8"?>
<svg viewBox="0 0 500 500" xmlns="http://www.w3.org/2000/svg">
  <g style="" transform="matrix(-1, 0, 0, 1, 492.135345, 0)">
    <title>Elephant</title>
    <path style="stroke: rgb(98, 84, 84); stroke-width: 18.4275px; fill: rgb(165, 157, 157);" d="M 177.902 363.715 C 320.337 365.412 322.699 163.534 322.668 163.535 C 316.007 24.02 234.827 33.273 192.312 33.846 C 99.392 35.099 37.395 133.158 39.346 177.874 C 16.367 271.765 84.28 367.371 177.902 363.715 Z" transform="matrix(-1, 0, 0, -1, 357.51564, 397.343262)">
      <title>Body</title>
    </path>
    <path style="stroke: rgb(98, 84, 84); stroke-width: 18.4275px; fill: rgb(165, 157, 157);" d="M 288.174 153.3 C 311.525 194.677 338.37 209.83 367.16 218.181 C 404.559 229.029 407.599 217.072 415.615 206.965 C 423.162 197.45 434.928 90.171 411.899 79.082 C 398.021 57.169 338.106 11.257 339.518 13.487 C 269.719 30.183 266.111 101.83 288.174 153.3 Z" transform="matrix(-1, 0, 0, -1, 701.576691, 235.87944)">
      <title>Head</title>
    </path>
    <path style="stroke: rgb(98, 84, 84); stroke-width: 18.4275px; fill: rgb(165, 157, 157);" d="M 403.965 454.907 C 355.04 333.571 341.387 248.472 335.788 235.873 C 376.636 215.417 400.404 209.812 417.719 205.745 C 422.191 223.467 423.132 276.773 440.001 343.545 C 458.68 417.482 439.839 455.577 457.288 454.791 L 403.965 454.907 Z" transform="matrix(-1, 0, 0, -1, 793.075989, 660.652008)">
      <title>Trunk</title>
    </path>
    <path style="stroke: rgb(98, 84, 84); stroke-width: 18.4275px; fill: none;" d="M 247.506 471.717 C 228.174 371.561 219.888 324.766 227.907 346.754 C 243.162 352.974 192.668 344.421 177.521 339.81" transform="matrix(-1, 0, 0, -1, 425.026993, 811.527008)">
      <title>Leg</title>
    </path>
    <path style="stroke: rgb(98, 84, 84); stroke-width: 18.4275px; fill: none;" d="M 154.972 486.968 C 152.2 479.096 157.886 344.357 164.514 363.18 C 178.402 373.932 126.19 358.606 107.338 346.702" transform="matrix(-1, 0, 0, -1, 274.172104, 833.669983)">
      <title>Leg</title>
    </path>
    <path style="stroke: rgb(98, 84, 84); stroke-width: 18.4275px; fill: none;" d="M 62.626 457.952 C 64.905 443.388 85.234 352.935 94.476 368.093 C 92.295 373.328 76.356 346.745 63.24 337.864" transform="matrix(-1, 0, 0, -1, 157.101997, 795.81601)">
      <title>Leg</title>
    </path>
    <path d="M 364.514 98.23 C 365.007 96.033 373.221 73.394 372.141 72.223 C 371.465 71.491 359.123 90.607 359.123 91.785 C 359.123 94.178 360.491 87.183 361.48 85.004 C 362.372 83.04 369.028 70.41 368.507 69.844 C 366.635 67.816 364.47 73.619 362.614 75.663 C 360.73 77.737 352.112 87.583 354.808 90.601 C 355.92 91.846 359.508 85.169 359.795 84.629 C 361.7 81.057 363.985 77.878 365.173 74.069 C 365.808 72.031 366.616 65.697 366.616 67.831 C 366.616 71.288 365.345 76.289 366.284 79.625 C 367.047 82.335 367.471 85.749 367.471 88.656" style="fill: rgb(216, 216, 216); stroke: rgb(98, 84, 84); stroke-width: 29.0402px;" transform="matrix(-1, 0, 0, -1, 726.529022, 165.627602)">
      <title>Eye</title>
    </path>
    <path style="stroke: rgb(98, 84, 84); stroke-width: 18.4275px; fill: none;" d="M 432.364 339.213 C 466.487 258.301 470.767 180.817 441.325 158.068 C 355.53 105.965 315.453 178.7 295.721 196.756" transform="matrix(-1, 0, 0, -1, 756.660431, 478.798233)">
      <title>Tusk</title>
    </path>
  </g>
</svg>