<?xml version="1.0" encoding="utf-8"?>
<svg viewBox="0 0 500 500" xmlns="http://www.w3.org/2000/svg">
  <g style="" transform="matrix(1.134113, -0.000026, 0.011086, 1.020594, -30.388165, -5.402439)">
    <title>Elephant</title>
    <path style="fill: rgb(165, 157, 157); stroke-width: 15px; stroke: rgb(101, 87, 87); stroke-linecap: round; stroke-linejoin: round;" d="M 177.902 363.715 C 320.337 365.412 322.699 163.534 322.668 163.535 C 316.007 24.02 234.827 33.273 192.312 33.846 C 99.392 35.099 37.395 133.158 39.346 177.874 C 16.367 271.765 84.28 367.371 177.902 363.715 Z" transform="matrix(-1, 0, 0, -1, 357.51564, 397.343262)">
      <title>Body</title>
    </path>
    <path style="fill: rgb(165, 157, 157); stroke-width: 15px; stroke: rgb(101, 87, 87); stroke-linecap: round; stroke-linejoin: round;" d="M 288.174 153.3 C 311.525 194.677 338.37 209.83 367.16 218.181 C 404.559 229.029 407.599 217.072 415.615 206.965 C 423.162 197.45 434.928 90.171 411.899 79.082 C 398.021 57.169 338.106 11.257 339.518 13.487 C 269.719 30.183 266.111 101.83 288.174 153.3 Z" transform="matrix(-1, 0, 0, -1, 701.576691, 235.87944)">
      <title>Head</title>
    </path>
    <path style="fill: rgb(165, 157, 157); stroke-width: 15px; stroke: rgb(101, 87, 87); stroke-linecap: round; stroke-linejoin: round;" d="M 403.965 454.907 C 355.04 333.571 341.387 248.472 335.788 235.873 C 376.636 215.417 400.404 209.812 417.719 205.745 C 422.191 223.467 423.132 276.773 440.001 343.545 C 458.68 417.482 439.839 455.577 457.288 454.791 L 403.965 454.907 Z" transform="matrix(-1, 0, 0, -1, 793.075989, 660.652008)">
      <title>Trunk</title>
    </path>
    <path style="fill: none; stroke-width: 15px; stroke: rgb(101, 87, 87); stroke-linecap: round; stroke-linejoin: round;" d="M 247.506 471.717 C 228.174 371.561 219.888 324.766 227.907 346.754 C 243.162 352.974 192.668 344.421 177.521 339.81" transform="matrix(-1, 0, 0, -1, 425.026993, 811.527008)" id="leg1">
      <title>Leg</title>
    </path>
    <path style="fill: none; stroke-width: 15px; stroke: rgb(101, 87, 87); stroke-linecap: round; stroke-linejoin: round;" d="M 154.972 486.968 C 152.2 479.096 157.886 344.357 164.514 363.18 C 178.402 373.932 126.19 358.606 107.338 346.702" transform="matrix(-1, 0, 0, -1, 274.172104, 833.669983)" id="leg2">
      <title>Leg</title>
    </path>
    <path style="fill: none; stroke-width: 15px; stroke: rgb(101, 87, 87); stroke-linecap: round; stroke-linejoin: round;" d="M 62.626 457.952 C 64.905 443.388 85.234 352.935 94.476 368.093 C 92.295 373.328 76.356 346.745 63.24 337.864" transform="matrix(-1, 0, 0, -1, 157.101997, 795.81601)" id="leg3">
      <title>Leg</title>
    </path>
    <path d="M 375.88 98.998 C 378.443 104.289 381.715 97.886 383.414 98.711 C 387.07 100.486 383.003 92.893 379.192 91.479" style="fill: rgb(216, 216, 216); stroke-width: 15px; stroke: rgb(101, 87, 87); stroke-linecap: round; stroke-linejoin: round;" transform="matrix(-1, 0, 0, -1, 741.77771, 195.239296)">
      <title>Eye</title>
    </path>
    <path style="fill: none; stroke-width: 15px; stroke: rgb(101, 87, 87); stroke-linecap: round; stroke-linejoin: round;" d="M 442.585 381.335 C 428.491 288.826 396.875 232.806 370.54 216.706 C 358.236 206.193 321.431 197.776 301.699 215.832" id="tusk" transform="matrix(-1, 0, 0, -1, 756.660431, 478.798233)">
      <title>Tusk</title>
    </path>
  </g>
</svg>