<?xml version="1.0" encoding="utf-8"?>
<svg viewBox="0 0 500 500" xmlns="http://www.w3.org/2000/svg">
  <g transform="matrix(1.334572, 0, 0, 1.405424, -75.114311, -2.833345)">
    <title>Robin</title>
    <path style="stroke: rgb(0, 0, 0); stroke-linecap: round; stroke-linejoin: round; stroke-width: 4.37957px;" d="M 289.862 8.182 C 291.34 8.049 293.074 9.319 293.847 10.269 C 294.516 11.091 294.753 12.336 294.606 13.306 C 294.456 14.299 293.81 15.093 292.898 16.152 C 291.615 17.642 287.143 20.695 287.015 21.276 C 286.97 21.484 287.213 21.511 287.585 21.465 C 288.642 21.335 293.276 18.245 295.175 18.429 C 296.611 18.568 297.789 19.98 298.401 20.896 C 298.908 21.654 297.976 22.994 298.971 23.363 C 301.238 24.204 315.258 18.407 318.327 18.809 C 319.707 18.99 319.94 19.731 320.414 20.517 C 320.94 21.389 321.363 22.93 321.173 23.932 C 320.995 24.875 320.803 25.17 319.466 26.399 C 316.118 29.477 295.646 41.95 294.986 43.289 C 294.818 43.629 295.288 43.614 295.934 43.478 C 298.03 43.039 307.847 37.541 312.634 35.888 C 316.408 34.584 320.228 33.307 322.502 33.611 C 324.045 33.817 325.072 34.834 325.728 35.698 C 326.303 36.455 326.611 37.471 326.487 38.355 C 326.354 39.306 325.984 40.203 324.779 41.201 C 322.673 42.947 314.993 46.595 312.634 46.894 C 311.448 47.045 311.516 46.005 310.357 46.135 C 308.145 46.384 304.716 49.173 299.35 51.069 C 290.528 54.186 262.944 55.937 263.832 55.076 C 266.216 52.764 255.543 46.514 246.136 47.713 C 241.858 48.258 220.955 52.664 221.356 52.018 C 224.352 47.193 244.279 31.999 254.565 24.502 C 263.362 18.09 275.006 9.858 279.235 8.941 C 281.03 8.552 281.693 9.456 282.461 10.079 C 283.153 10.641 282.988 12.268 283.789 12.357 C 284.998 12.491 288.061 8.344 289.862 8.182 Z M 272.593 22.225 C 272.542 22.241 272.53 22.541 272.593 22.604 C 272.656 22.667 272.956 22.655 272.973 22.604 C 272.992 22.545 272.652 22.206 272.593 22.225 Z M 271.455 22.984 C 270.005 23.28 256.102 33.211 255.514 34.37 C 255.375 34.644 255.55 34.819 255.894 34.749 C 257.344 34.453 271.247 24.522 271.834 23.363 C 271.973 23.088 271.798 22.913 271.455 22.984 Z M 293.467 33.99 C 293.416 34.006 293.404 34.306 293.467 34.37 C 293.531 34.433 293.831 34.421 293.847 34.37 C 293.866 34.311 293.526 33.971 293.467 33.99 Z M 292.708 34.37 C 291.068 34.644 274.065 45.313 273.352 46.515 C 273.193 46.783 273.366 46.955 273.732 46.894 C 275.372 46.62 292.375 35.951 293.088 34.749 C 293.247 34.481 293.074 34.308 292.708 34.37 Z M 255.135 34.749 C 255.083 34.766 255.071 35.065 255.135 35.129 C 255.198 35.192 255.498 35.18 255.514 35.129 C 255.533 35.07 255.194 34.73 255.135 34.749 Z">
      <title>Hair</title>
    </path>
    <path style="stroke: rgb(0, 0, 0); fill: none; stroke-linecap: round; stroke-linejoin: round; stroke-width: 4.37957px;" d="M 244.663 124.947 C 225.678 136.537 210.296 128.722 210.036 128.63 C 198.299 106.285 192.431 83.036 204.455 65.006 C 216.891 46.359 258.56 42.267 263.719 54.173 C 274.591 79.263 253.654 119.458 244.663 124.947 Z M 249.91 148.927 C 251.787 148.491 253.903 148.427 255.603 148.927 C 257.242 149.41 259.474 150.395 259.967 151.774 C 260.493 153.245 259.031 156.59 258.259 157.656 C 257.771 158.331 256.416 158.033 256.551 158.605 C 256.831 159.788 265.86 164.211 266.419 165.437 C 266.635 165.909 266.282 166.415 265.85 166.386 C 264.856 166.318 260.997 161.691 259.018 160.693 C 257.6 159.977 256.794 159.846 255.223 159.934 C 253.075 160.054 248.167 160.362 247.063 162.211 C 245.899 164.161 249.406 171.044 248.961 171.699 C 248.734 172.033 247.93 171.66 247.443 170.75 C 246.181 168.397 242.641 155.15 244.027 151.774 C 244.926 149.584 247.926 149.389 249.91 148.927 Z M 252.376 150.066 C 250.156 149.934 246.566 150.357 245.545 151.963 C 244.431 153.715 244.929 159.762 246.683 160.693 C 248.687 161.755 256.378 157.882 258.069 156.138 C 259.094 155.082 259.389 153.66 258.829 152.723 C 258.09 151.487 254.583 150.197 252.376 150.066 Z">
      <title>Head</title>
    </path>
    <path style="fill: none; stroke: rgb(0, 0, 0); stroke-linecap: round; stroke-linejoin: round; stroke-width: 4.37957px;" d="M 157.233 181.511 C 156.044 149.397 201.76 127.658 240.522 127.37 C 273.417 127.126 278.656 150.218 277.131 173.566 C 275.645 196.308 269.623 230.637 228.555 237.322 C 190.767 243.473 158.452 214.434 157.233 181.511 Z">
      <title>Body</title>
    </path>
    <path style="stroke: rgb(0, 0, 0); fill: none; stroke-linecap: round; stroke-linejoin: round; stroke-width: 4.37957px;" d="M 213.493 242.473 C 222.929 260.453 206.353 351.746 203.603 346.507 C 185.266 341.88 166.93 338.421 148.593 336.132">
      <title>L Leg</title>
    </path>
    <path style="stroke: rgb(0, 0, 0); fill: none; stroke-linecap: round; stroke-linejoin: round; stroke-width: 4.37957px;" d="M 234.471 231.51 C 244.508 245.734 249.552 338.249 253.866 340.176 C 253.866 339.799 320.851 322.426 320.851 322.649">
      <title>R Leg</title>
    </path>
    <path style="stroke: rgb(0, 0, 0); fill: none; stroke-linecap: round; stroke-linejoin: round; stroke-width: 4.37957px;" d="M 260.489 104.034 C 273.454 89.066 347.243 82.096 373.82 108.994 C 401.773 137.284 387.933 215.667 385.426 229.281 C 383.154 241.62 375.871 277.92 375.937 278.119 C 358.251 272.521 114.447 275.08 122.58 277.654 C 121.381 278.545 55.056 204.176 62.645 160.133 C 71.244 110.229 122.333 93.242 156.059 95.45 C 184.065 97.284 210.311 127.578 211.538 131.505 L 244.391 127.053 L 260.489 104.034 Z">
      <title>Cape</title>
    </path>
    <path style="stroke: rgb(0, 0, 0); fill: none; stroke-linecap: round; stroke-linejoin: round; stroke-width: 4.37957px;" d="M 274.516 145.096 C 286.081 131.543 317.699 124.751 334.744 135.755 C 351.231 146.399 342.377 166.238 327.905 179.019 C 314.668 190.71 280.09 189.763 275.269 185.065">
      <title>R Arm</title>
    </path>
    <path style="stroke: rgb(0, 0, 0); fill: none; stroke-linecap: round; stroke-linejoin: round; stroke-width: 4.37957px;" d="M 160.411 162.222 C 144.365 147.577 123.366 156.324 111.469 168.494 C 94.759 185.588 101.416 198.096 117.148 207.127 C 131.653 215.453 152.024 214.094 168.037 212.021">
      <title>L Arm</title>
    </path>
    <path style="stroke: rgb(0, 0, 0); fill: none; stroke-linecap: round; stroke-linejoin: round; stroke-width: 4.37957px;" d="M 262.697 57.399 L 228.302 54.611 C 211.935 56.499 206.813 72.436 209.622 80.56 C 214.947 91.689 248.952 91.154 262.23 84.614 C 266.691 81.397 265.785 67.713 262.697 57.399 Z">
      <title>Mask</title>
    </path>
    <path style="fill: none; stroke: rgb(0, 0, 0); stroke-linecap: round; stroke-linejoin: round; stroke-width: 4.37957px;" d="M 250.605 142.679 C 257.791 141.29 265.741 142.15 272.618 143.817 C 279.317 145.442 288.634 148.389 291.405 152.357 C 296.766 160.033 291.907 165.126 288.559 168.487 C 285.253 171.805 276.133 176.703 272.618 177.975 C 270.68 178.677 262.725 175.049 260.094 174.939 C 257.69 174.839 247.082 177.014 243.296 176.74 C 238.12 176.366 228.745 175.68 224.418 174.56 C 221.324 173.759 219.657 167.448 218.155 164.502 C 216.466 161.188 238.661 144.988 250.605 142.679 Z">
      <title>Symbol</title>
    </path>
    <path style="fill: none; stroke: rgb(0, 0, 0); stroke-linecap: round; stroke-linejoin: round; stroke-width: 4.37957px;" d="M 257.741 62.5 L 253.021 74.743">
      <title>Eye</title>
    </path>
    <path style="fill: none; stroke: rgb(0, 0, 0); stroke-linecap: round; stroke-linejoin: round; stroke-width: 4.37957px;" d="M 242.597 62.786 L 236.905 74.956">
      <title>Eye</title>
    </path>
    <path style="fill: none; stroke: rgb(0, 0, 0); stroke-linecap: round; stroke-linejoin: round; stroke-width: 4.37957px;" d="M 250.935 95.538 C 228.413 132.233 216.781 130.232 216.249 94.38">
      <title>Mouth</title>
    </path>
  </g>
</svg>